<svg xmlns="http://www.w3.org/2000/svg" width="44" height="44" viewBox="0 0 44 44">
  <metadata><?xpacket begin="﻿" id="W5M0MpCehiHzreSzNTczkc9d"?>
<x:xmpmeta xmlns:x="adobe:ns:meta/" x:xmptk="Adobe XMP Core 5.6-c140 79.160451, 2017/05/06-01:08:21        ">
   <rdf:RDF xmlns:rdf="http://www.w3.org/1999/02/22-rdf-syntax-ns#">
      <rdf:Description rdf:about=""/>
   </rdf:RDF>
</x:xmpmeta>
                                                                                                    
                                                                                                    
                                                                                                    
                                                                                                    
                                                                                                    
                                                                                                    
                                                                                                    
                                                                                                    
                                                                                                    
                                                                                                    
                                                                                                    
                                                                                                    
                                                                                                    
                                                                                                    
                                                                                                    
                                                                                                    
                                                                                                    
                                                                                                    
                                                                                                    
                                                                                                    
                           
<?xpacket end="w"?></metadata>
<defs>
    <style>
      .cls-1 {
        fill: #546076;
        fill-rule: evenodd;
      }
    </style>
  </defs>
  <path id="menu4" class="cls-1" d="M526.638,1268.88h-3.267a2.465,2.465,0,0,1,0-4.93h5.767a1.12,1.12,0,1,0,0-2.24h-3v-2.3a1.124,1.124,0,0,0-2.247,0v2.3h-0.515a4.705,4.705,0,1,0,0,9.41h3.267a2.465,2.465,0,0,1,0,4.93h-5.87a1.12,1.12,0,1,0,0,2.24h3.109v2.34a1.123,1.123,0,1,0,2.246,0v-2.34h0.571A4.705,4.705,0,0,0,526.638,1268.88Zm13.921-14.44A22.015,22.015,0,1,0,547,1270,21.836,21.836,0,0,0,540.559,1254.44ZM525,1289.75A19.75,19.75,0,1,1,544.753,1270,19.776,19.776,0,0,1,525,1289.75Z" transform="translate(-503 -1248)"/>
</svg>
