<svg xmlns="http://www.w3.org/2000/svg" width="35" height="24" viewBox="0 0 35 24">
  <metadata><?xpacket begin="﻿" id="W5M0MpCehiHzreSzNTczkc9d"?>
<x:xmpmeta xmlns:x="adobe:ns:meta/" x:xmptk="Adobe XMP Core 5.6-c140 79.160451, 2017/05/06-01:08:21        ">
   <rdf:RDF xmlns:rdf="http://www.w3.org/1999/02/22-rdf-syntax-ns#">
      <rdf:Description rdf:about=""/>
   </rdf:RDF>
</x:xmpmeta>
                                                                                                    
                                                                                                    
                                                                                                    
                                                                                                    
                                                                                                    
                                                                                                    
                                                                                                    
                                                                                                    
                                                                                                    
                                                                                                    
                                                                                                    
                                                                                                    
                                                                                                    
                                                                                                    
                                                                                                    
                                                                                                    
                                                                                                    
                                                                                                    
                                                                                                    
                                                                                                    
                           
<?xpacket end="w"?></metadata>
<defs>
    <style>
      .cls-1 {
        fill: #546076;
        fill-rule: evenodd;
      }
    </style>
  </defs>
  <path id="menu_icon" data-name="menu icon" class="cls-1" d="M33.029,66H65.971A1.029,1.029,0,0,1,67,67.029v0.005a1.029,1.029,0,0,1-1.029,1.029H33.029A1.029,1.029,0,0,1,32,67.034V67.029A1.028,1.028,0,0,1,33.029,66Zm0,10.969H65.971A1.029,1.029,0,0,1,67,78V78a1.029,1.029,0,0,1-1.029,1.028H33.029A1.029,1.029,0,0,1,32,78V78A1.029,1.029,0,0,1,33.029,76.969Zm0,10.969H65.971A1.029,1.029,0,0,1,67,88.966v0.005A1.029,1.029,0,0,1,65.971,90H33.029A1.029,1.029,0,0,1,32,88.971V88.966A1.029,1.029,0,0,1,33.029,87.937Z" transform="translate(-32 -66)"/>
</svg>
