<svg xmlns="http://www.w3.org/2000/svg" width="44" height="38" viewBox="0 0 44 38">
  <metadata><?xpacket begin="﻿" id="W5M0MpCehiHzreSzNTczkc9d"?>
<x:xmpmeta xmlns:x="adobe:ns:meta/" x:xmptk="Adobe XMP Core 5.6-c140 79.160451, 2017/05/06-01:08:21        ">
   <rdf:RDF xmlns:rdf="http://www.w3.org/1999/02/22-rdf-syntax-ns#">
      <rdf:Description rdf:about=""/>
   </rdf:RDF>
</x:xmpmeta>
                                                                                                    
                                                                                                    
                                                                                                    
                                                                                                    
                                                                                                    
                                                                                                    
                                                                                                    
                                                                                                    
                                                                                                    
                                                                                                    
                                                                                                    
                                                                                                    
                                                                                                    
                                                                                                    
                                                                                                    
                                                                                                    
                                                                                                    
                                                                                                    
                                                                                                    
                                                                                                    
                           
<?xpacket end="w"?></metadata>
<defs>
    <style>
      .cls-1 {
        fill: #fff;
        fill-rule: evenodd;
      }
    </style>
  </defs>
  <path id="menu1" class="cls-1" d="M57.735,1259.3A4.651,4.651,0,1,0,53,1254.64,4.7,4.7,0,0,0,57.735,1259.3Zm0-7.14a2.485,2.485,0,1,1-2.534,2.48A2.512,2.512,0,0,1,57.735,1252.16Zm0,21.48A4.641,4.641,0,1,0,53,1269,4.69,4.69,0,0,0,57.735,1273.64Zm0-7.13A2.49,2.49,0,1,1,55.2,1269,2.514,2.514,0,0,1,57.735,1266.51Zm0,21.49A4.646,4.646,0,1,0,53,1283.36,4.7,4.7,0,0,0,57.735,1288Zm0-7.14a2.485,2.485,0,1,1-2.534,2.49A2.514,2.514,0,0,1,57.735,1280.86Zm11.07-25.13h27.09a1.085,1.085,0,1,0,0-2.17H68.8A1.085,1.085,0,1,0,68.8,1255.73Zm0,14.35h27.09a1.08,1.08,0,1,0,0-2.16H68.8A1.08,1.08,0,1,0,68.8,1270.08Zm0,14.35h27.09a1.085,1.085,0,1,0,0-2.17H68.8A1.085,1.085,0,1,0,68.8,1284.43Z" transform="translate(-53 -1250)"/>
</svg>
