<svg xmlns="http://www.w3.org/2000/svg" width="44" height="44" viewBox="0 0 44 44">
  <metadata><?xpacket begin="﻿" id="W5M0MpCehiHzreSzNTczkc9d"?>
<x:xmpmeta xmlns:x="adobe:ns:meta/" x:xmptk="Adobe XMP Core 5.6-c140 79.160451, 2017/05/06-01:08:21        ">
   <rdf:RDF xmlns:rdf="http://www.w3.org/1999/02/22-rdf-syntax-ns#">
      <rdf:Description rdf:about=""/>
   </rdf:RDF>
</x:xmpmeta>
                                                                                                    
                                                                                                    
                                                                                                    
                                                                                                    
                                                                                                    
                                                                                                    
                                                                                                    
                                                                                                    
                                                                                                    
                                                                                                    
                                                                                                    
                                                                                                    
                                                                                                    
                                                                                                    
                                                                                                    
                                                                                                    
                                                                                                    
                                                                                                    
                                                                                                    
                                                                                                    
                           
<?xpacket end="w"?></metadata>
<defs>
    <style>
      .cls-1 {
        fill: #546076;
        fill-rule: evenodd;
      }
    </style>
  </defs>
  <path id="menu5" class="cls-1" d="M695.039,1266.75c-0.828-.12-1.677-0.24-2.525-0.35a0.269,0.269,0,0,1-.212-0.18,17.757,17.757,0,0,0-1.688-4.07,0.253,0.253,0,0,1,.024-0.28c0.521-.68,1.038-1.36,1.536-2.04a2.32,2.32,0,0,0-.227-3l-2.781-2.78a2.312,2.312,0,0,0-3-.22c-0.672.49-1.357,1.01-2.036,1.53a0.256,0.256,0,0,1-.277.03,17.726,17.726,0,0,0-4.072-1.69,0.255,0.255,0,0,1-.178-0.21c-0.111-.85-0.229-1.7-0.353-2.53a2.316,2.316,0,0,0-2.282-1.96h-3.934a2.316,2.316,0,0,0-2.282,1.96c-0.124.83-.242,1.68-0.353,2.53a0.256,0.256,0,0,1-.178.21,17.726,17.726,0,0,0-4.072,1.69,0.256,0.256,0,0,1-.277-0.03c-0.679-.52-1.364-1.04-2.036-1.53a2.312,2.312,0,0,0-3,.22l-2.781,2.78a2.333,2.333,0,0,0-.227,3.01c0.5,0.67,1.016,1.35,1.536,2.03a0.255,0.255,0,0,1,.024.28,17.8,17.8,0,0,0-1.688,4.07,0.269,0.269,0,0,1-.212.18c-0.847.11-1.7,0.23-2.524,0.35a2.322,2.322,0,0,0-1.962,2.28v3.94a2.322,2.322,0,0,0,1.961,2.28c0.828,0.12,1.678.24,2.525,0.35a0.269,0.269,0,0,1,.212.18,17.757,17.757,0,0,0,1.688,4.07,0.255,0.255,0,0,1-.024.28c-0.522.68-1.038,1.36-1.536,2.04a2.32,2.32,0,0,0,.227,3l2.781,2.78a2.312,2.312,0,0,0,3,.22c0.672-.49,1.357-1.01,2.036-1.53a0.256,0.256,0,0,1,.277-0.03,17.726,17.726,0,0,0,4.072,1.69,0.256,0.256,0,0,1,.178.21c0.111,0.85.229,1.7,0.353,2.53a2.316,2.316,0,0,0,2.282,1.96h3.934a2.316,2.316,0,0,0,2.282-1.96c0.124-.83.242-1.68,0.353-2.53a0.255,0.255,0,0,1,.178-0.21,17.726,17.726,0,0,0,4.072-1.69,0.256,0.256,0,0,1,.277.03c0.679,0.52,1.364,1.04,2.036,1.53a2.312,2.312,0,0,0,3-.22l2.781-2.78a2.333,2.333,0,0,0,.227-3.01c-0.5-.67-1.015-1.35-1.536-2.03a0.253,0.253,0,0,1-.024-0.28,17.8,17.8,0,0,0,1.688-4.07,0.253,0.253,0,0,1,.212-0.18c0.847-.11,1.7-0.23,2.524-0.35a2.322,2.322,0,0,0,1.962-2.28v-3.94A2.322,2.322,0,0,0,695.039,1266.75Zm-0.094,6.22a0.257,0.257,0,0,1-.21.25c-0.815.12-1.652,0.24-2.487,0.35a2.294,2.294,0,0,0-1.927,1.66,15.9,15.9,0,0,1-1.493,3.61,2.294,2.294,0,0,0,.181,2.54c0.514,0.67,1.023,1.34,1.513,2.01a0.244,0.244,0,0,1-.028.32l-2.781,2.78a0.253,0.253,0,0,1-.326.03c-0.662-.49-1.336-1-2-1.51a2.3,2.3,0,0,0-2.545-.18,16.165,16.165,0,0,1-3.6,1.49,2.3,2.3,0,0,0-1.669,1.93c-0.109.83-.226,1.67-0.348,2.48a0.252,0.252,0,0,1-.25.22h-3.934a0.252,0.252,0,0,1-.25-0.22c-0.122-.81-0.239-1.65-0.348-2.48a2.3,2.3,0,0,0-1.669-1.93,15.707,15.707,0,0,1-3.6-1.49,2.3,2.3,0,0,0-2.545.18c-0.669.51-1.343,1.02-2,1.51a0.253,0.253,0,0,1-.326-0.03l-2.781-2.78a0.244,0.244,0,0,1-.028-0.32c0.49-.66,1-1.34,1.513-2.01a2.294,2.294,0,0,0,.181-2.54,15.9,15.9,0,0,1-1.493-3.61,2.294,2.294,0,0,0-1.927-1.66c-0.835-.11-1.671-0.23-2.487-0.35a0.257,0.257,0,0,1-.21-0.25v-3.94a0.257,0.257,0,0,1,.21-0.25c0.816-.12,1.652-0.24,2.487-0.34a2.3,2.3,0,0,0,1.927-1.67,15.851,15.851,0,0,1,1.493-3.61,2.294,2.294,0,0,0-.181-2.54c-0.513-.67-1.022-1.34-1.513-2.01a0.246,0.246,0,0,1,.028-0.32l2.781-2.78a0.253,0.253,0,0,1,.326-0.03c0.661,0.49,1.336,1,2,1.51a2.3,2.3,0,0,0,2.545.18,16.165,16.165,0,0,1,3.6-1.49,2.3,2.3,0,0,0,1.669-1.93c0.109-.83.226-1.67,0.348-2.48a0.261,0.261,0,0,1,.25-0.22h3.934a0.261,0.261,0,0,1,.25.22c0.122,0.81.239,1.65,0.348,2.48a2.3,2.3,0,0,0,1.669,1.93,16.192,16.192,0,0,1,3.6,1.49,2.294,2.294,0,0,0,2.544-.18c0.669-.51,1.344-1.02,2-1.51a0.253,0.253,0,0,1,.326.03l2.781,2.78a0.244,0.244,0,0,1,.028.32c-0.49.67-1,1.34-1.513,2.01a2.3,2.3,0,0,0-.181,2.54,15.851,15.851,0,0,1,1.493,3.61,2.319,2.319,0,0,0,1.927,1.67c0.835,0.1,1.672.22,2.487,0.34a0.258,0.258,0,0,1,.211.25v3.94h0ZM675,1261.45a9.55,9.55,0,1,0,9.551,9.55A9.559,9.559,0,0,0,675,1261.45Zm0,17.05a7.5,7.5,0,1,1,7.5-7.5A7.51,7.51,0,0,1,675,1278.5Z" transform="translate(-653 -1249)"/>
</svg>
