<svg xmlns="http://www.w3.org/2000/svg" width="32.062" height="35" viewBox="0 0 32.062 35">
  <metadata><?xpacket begin="﻿" id="W5M0MpCehiHzreSzNTczkc9d"?>
<x:xmpmeta xmlns:x="adobe:ns:meta/" x:xmptk="Adobe XMP Core 5.6-c140 79.160451, 2017/05/06-01:08:21        ">
   <rdf:RDF xmlns:rdf="http://www.w3.org/1999/02/22-rdf-syntax-ns#">
      <rdf:Description rdf:about=""/>
   </rdf:RDF>
</x:xmpmeta>
                                                                                                    
                                                                                                    
                                                                                                    
                                                                                                    
                                                                                                    
                                                                                                    
                                                                                                    
                                                                                                    
                                                                                                    
                                                                                                    
                                                                                                    
                                                                                                    
                                                                                                    
                                                                                                    
                                                                                                    
                                                                                                    
                                                                                                    
                                                                                                    
                                                                                                    
                                                                                                    
                           
<?xpacket end="w"?></metadata>
<defs>
    <style>
      .cls-1 {
        fill: #546076;
        fill-rule: evenodd;
      }
    </style>
  </defs>
  <path id="refresh" class="cls-1" d="M692.516,67.94a13.952,13.952,0,0,1,18.139-.479l-4.152.157a0.965,0.965,0,0,0,.035,1.93h0.036l6.375-.236a0.963,0.963,0,0,0,.929-0.965V68.233h0l-0.236-6.3a0.965,0.965,0,1,0-1.929.072l0.15,3.953a15.867,15.867,0,0,0-20.64.557,15.876,15.876,0,0,0-4.775,15.517,0.962,0.962,0,0,0,.937.736,0.829,0.829,0,0,0,.228-0.029,0.966,0.966,0,0,0,.708-1.165A13.945,13.945,0,0,1,692.516,67.94Zm25.036,7.033a0.964,0.964,0,0,0-1.873.457,13.942,13.942,0,0,1-22.448,14.016l4.2-.379a0.965,0.965,0,1,0-.179-1.923l-6.353.572a0.964,0.964,0,0,0-.872,1.051l0.572,6.354a0.963,0.963,0,0,0,.957.879,0.348,0.348,0,0,0,.086-0.007,0.964,0.964,0,0,0,.872-1.051l-0.343-3.867a15.762,15.762,0,0,0,9.169,3.495c0.272,0.014.544,0.021,0.808,0.021A15.872,15.872,0,0,0,717.552,74.973Z" transform="translate(-685.969 -61)"/>
</svg>
