<svg xmlns="http://www.w3.org/2000/svg" width="44" height="44" viewBox="0 0 44 44">
  <metadata><?xpacket begin="﻿" id="W5M0MpCehiHzreSzNTczkc9d"?>
<x:xmpmeta xmlns:x="adobe:ns:meta/" x:xmptk="Adobe XMP Core 5.6-c140 79.160451, 2017/05/06-01:08:21        ">
   <rdf:RDF xmlns:rdf="http://www.w3.org/1999/02/22-rdf-syntax-ns#">
      <rdf:Description rdf:about=""/>
   </rdf:RDF>
</x:xmpmeta>





















<?xpacket end="w"?></metadata>
<defs>
    <style>
      .cls-1 {
        fill: #fff;
        fill-rule: evenodd;
      }
    </style>
  </defs>
  <path id="menu2" class="cls-1" d="M243.307,1247a3.7,3.7,0,1,0,3.693,3.69A3.688,3.688,0,0,0,243.307,1247Zm0,5.49a1.8,1.8,0,1,1,1.8-1.8A1.794,1.794,0,0,1,243.307,1252.49Zm-36.614,15.56a3.7,3.7,0,1,0,3.694,3.69A3.687,3.687,0,0,0,206.693,1268.05Zm0,5.49a1.8,1.8,0,1,1,1.8-1.8A1.793,1.793,0,0,1,206.693,1273.54Zm10.978-16.47a3.7,3.7,0,1,0,3.694,3.7A3.69,3.69,0,0,0,217.671,1257.07Zm0,5.49a1.8,1.8,0,1,1,1.8-1.79A1.791,1.791,0,0,1,217.671,1262.56Zm7.781,2.29a3.7,3.7,0,1,0,3.694,3.7A3.69,3.69,0,0,0,225.452,1264.85Zm0,5.49a1.8,1.8,0,1,1,1.8-1.79A1.791,1.791,0,0,1,225.452,1270.34Zm1.276-4.41,13.953-13.98,1.343,1.34-13.953,13.98Zm-7.779-2.55,1.339-1.35,3.909,3.9-1.339,1.34Zm-10.977,5.74,7.091-7.09,1.342,1.34-7.091,7.1Zm-4.943,19.98h43.942v1.9H203.029v-1.9Zm39.329-26.51h1.9v27.46h-1.9v-27.46Zm-17.387,13.74h1.9v13.72h-1.9v-13.72Zm-19.227,2.74h1.9v10.98h-1.9v-10.98Zm10.979-8.25h1.9v19.23h-1.9v-19.23Z" transform="translate(-203 -1247)"/>
</svg>
