<svg xmlns="http://www.w3.org/2000/svg" width="44" height="41" viewBox="0 0 44 41">
  <metadata><?xpacket begin="﻿" id="W5M0MpCehiHzreSzNTczkc9d"?>
<x:xmpmeta xmlns:x="adobe:ns:meta/" x:xmptk="Adobe XMP Core 5.6-c140 79.160451, 2017/05/06-01:08:21        ">
   <rdf:RDF xmlns:rdf="http://www.w3.org/1999/02/22-rdf-syntax-ns#">
      <rdf:Description rdf:about=""/>
   </rdf:RDF>
</x:xmpmeta>





















<?xpacket end="w"?></metadata>
<defs>
    <style>
      .cls-1 {
        fill: #fff;
        fill-rule: evenodd;
      }
    </style>
  </defs>
  <path id="menu3" class="cls-1" d="M371.451,1281.21a3.9,3.9,0,1,0,3.869,3.89A3.881,3.881,0,0,0,371.451,1281.21Zm0,5.61a1.72,1.72,0,1,1,1.709-1.72A1.716,1.716,0,0,1,371.451,1286.82Zm13.573-5.61a3.9,3.9,0,1,0,3.87,3.89A3.881,3.881,0,0,0,385.024,1281.21Zm0,5.61a1.72,1.72,0,1,1,1.709-1.72A1.716,1.716,0,0,1,385.024,1286.82Zm0.953-26.13H370.5a1.09,1.09,0,0,0,0,2.18h15.482A1.09,1.09,0,0,0,385.977,1260.69Zm-0.843,5.65h-13.8a1.09,1.09,0,0,0,0,2.18h13.8A1.09,1.09,0,0,0,385.134,1266.34Zm11.382-10.49a2.153,2.153,0,0,0-1.675-.81H361.189l-0.68-3.32a2.166,2.166,0,0,0-1.256-1.55l-4.742-2.08a1.089,1.089,0,0,0-.86,2l4.742,2.07,5.227,25.55a2.172,2.172,0,0,0,2.116,1.74h25.883a1.09,1.09,0,0,0,0-2.18H365.737l-0.636-3.11h26.718a2.173,2.173,0,0,0,2.116-1.73l3.022-14.77A2.168,2.168,0,0,0,396.516,1255.85Zm-4.7,16.14H364.656l-3.022-14.77h33.207Z" transform="translate(-353 -1248)"/>
</svg>
